<?xml version="1.0" standalone="no"?>
<!DOCTYPE svg PUBLIC "-//W3C//DTD SVG 20010904//EN"
 "http://www.w3.org/TR/2001/REC-SVG-20010904/DTD/svg10.dtd">
<svg version="1.0" xmlns="http://www.w3.org/2000/svg"
 width="907.000000pt" height="907.000000pt" viewBox="0 0 907.000000 907.000000"
 preserveAspectRatio="xMidYMid meet">
<metadata>
Created by potrace 1.11, written by Peter Selinger 2001-2013
</metadata>
<g transform="translate(0.000000,907.000000) scale(0.100000,-0.100000)"
fill="#000000" stroke="none">
<path d="M4837 8003 c-3 -2 -24 -6 -48 -9 -157 -17 -214 -26 -217 -35 -2 -5
-15 -9 -28 -9 -14 0 -41 -7 -62 -16 -20 -8 -39 -15 -42 -15 -16 0 -58 -14 -77
-26 -12 -8 -26 -12 -31 -9 -6 3 -15 -1 -22 -9 -7 -8 -16 -13 -20 -10 -4 3 -13
-2 -20 -10 -7 -8 -16 -13 -20 -10 -4 3 -13 -2 -20 -10 -7 -8 -19 -15 -26 -15
-8 0 -14 -4 -14 -10 0 -5 -7 -10 -15 -10 -8 0 -15 -4 -15 -10 0 -5 -8 -10 -18
-10 -10 0 -28 -9 -40 -20 -12 -11 -28 -20 -37 -20 -8 0 -15 -4 -15 -8 0 -5
-16 -17 -35 -28 -19 -10 -35 -22 -35 -27 0 -4 -5 -5 -10 -2 -6 3 -13 -1 -16
-9 -3 -9 -12 -16 -20 -16 -8 0 -22 -8 -32 -18 -10 -10 -32 -24 -50 -31 -18 -7
-32 -17 -32 -22 0 -5 -5 -9 -11 -9 -6 0 -30 -13 -54 -30 -24 -16 -48 -30 -54
-30 -6 0 -11 -4 -11 -9 0 -5 -16 -15 -35 -22 -19 -7 -35 -17 -35 -21 0 -9 -50
-32 -62 -30 -5 1 -8 -5 -8 -13 0 -8 -9 -15 -19 -15 -11 0 -21 -3 -23 -7 -4 -9
-48 -36 -98 -61 -19 -9 -36 -20 -38 -24 -2 -4 -30 -20 -63 -34 -32 -15 -59
-30 -59 -33 0 -4 -16 -13 -35 -20 -19 -7 -35 -16 -35 -21 0 -5 -6 -7 -13 -4
-8 3 -20 -2 -27 -11 -7 -8 -19 -15 -26 -15 -8 0 -14 -4 -14 -10 0 -5 -5 -10
-11 -10 -7 0 -62 -24 -123 -54 -61 -29 -126 -59 -143 -67 -18 -8 -33 -17 -33
-21 0 -5 -3 -7 -7 -6 -10 3 -175 -61 -187 -73 -6 -5 -20 -9 -31 -9 -12 0 -25
-3 -28 -7 -12 -11 -105 -41 -111 -35 -3 3 -6 0 -6 -6 0 -7 -10 -12 -23 -12
-13 0 -27 -4 -33 -9 -5 -5 -20 -11 -34 -13 -14 -1 -28 -7 -31 -11 -3 -4 -17
-9 -30 -10 -13 -1 -34 -8 -46 -15 -13 -7 -23 -10 -23 -8 0 3 -19 -2 -42 -10
-23 -8 -55 -17 -72 -20 -51 -8 -67 -15 -60 -25 5 -9 117 -4 134 6 4 2 49 7
101 9 52 3 108 10 126 15 17 5 34 7 37 4 2 -3 29 0 58 7 29 6 69 14 88 16 19
2 69 11 110 19 41 9 89 18 105 21 31 5 90 18 158 35 20 5 54 13 75 18 20 5 96
28 169 51 72 22 141 43 152 45 12 2 27 7 34 12 6 4 21 9 32 10 11 2 24 8 29
13 6 6 20 10 33 10 13 0 23 5 23 11 0 5 4 8 8 5 4 -2 23 2 42 11 44 19 67 28
110 43 48 16 80 30 113 47 15 8 27 11 27 7 0 -3 6 -2 13 3 6 6 36 18 65 28 28
11 52 23 52 29 0 5 3 7 6 3 3 -3 27 6 54 19 26 13 52 24 57 24 6 0 23 6 39 14
16 8 47 22 69 31 22 10 58 26 80 35 22 10 50 21 63 25 12 3 22 11 22 17 0 5 6
8 14 5 7 -3 18 -1 23 4 5 5 18 12 29 14 30 7 148 50 162 58 6 5 12 6 12 3 0
-2 40 6 88 19 49 13 106 26 128 29 21 2 50 7 64 10 89 18 338 24 475 12 75 -7
130 -14 130 -16 0 -1 11 -3 25 -6 14 -2 36 -6 50 -8 14 -3 40 -9 58 -15 18 -5
33 -10 35 -10 1 0 9 -2 17 -5 8 -2 46 -14 84 -26 38 -12 91 -32 118 -46 26
-13 48 -21 48 -18 0 4 9 -1 20 -11 11 -10 20 -15 20 -10 0 4 15 -4 34 -19 19
-14 37 -26 40 -26 13 0 115 -69 155 -105 133 -119 251 -248 251 -275 0 -5 6
-13 13 -17 7 -4 29 -38 49 -74 48 -89 54 -99 68 -134 21 -51 28 -68 45 -120 9
-27 21 -58 27 -69 7 -14 0 -34 -36 -92 -25 -41 -46 -80 -46 -87 0 -7 -5 -18
-12 -25 -6 -6 -13 -17 -14 -24 -1 -7 -10 -33 -19 -58 -26 -71 -43 -140 -34
-140 5 0 17 8 27 19 87 93 127 131 137 131 3 0 15 9 27 20 12 11 53 38 92 60
39 23 78 45 86 50 16 10 58 30 130 62 25 11 53 24 62 29 10 5 26 9 36 9 10 0
22 4 28 10 5 5 18 11 29 13 11 2 32 9 47 15 26 11 140 36 213 46 22 4 55 9 72
12 55 10 235 8 296 -4 32 -6 61 -11 65 -10 16 4 211 -60 230 -74 6 -6 12 -7
12 -3 0 4 7 2 15 -5 9 -7 35 -23 58 -35 23 -13 59 -32 79 -43 30 -16 131 -104
179 -157 24 -26 79 -101 79 -107 0 -10 63 -102 73 -106 4 -2 7 -9 7 -17 0 -7
7 -18 15 -25 9 -7 14 -19 11 -26 -3 -7 0 -14 5 -16 6 -2 11 -10 13 -18 1 -8 7
-24 12 -35 13 -24 32 -97 37 -140 2 -16 7 -38 11 -47 14 -31 -6 -264 -25 -299
-5 -10 -9 -24 -9 -33 0 -8 -5 -27 -11 -43 -6 -15 -10 -29 -10 -30 2 -13 -109
-213 -129 -233 -3 -3 -24 -30 -46 -60 -76 -101 -206 -223 -325 -302 -64 -43
-121 -78 -127 -78 -7 0 -12 -4 -12 -10 0 -5 -11 -10 -24 -10 -13 0 -26 -5 -28
-11 -2 -5 -10 -11 -18 -13 -35 -7 -80 -29 -80 -38 0 -5 -4 -7 -8 -4 -5 3 -33
-4 -63 -15 -30 -12 -61 -22 -69 -24 -8 -2 -44 -11 -79 -20 -35 -9 -85 -18
-110 -20 -25 -2 -64 -6 -85 -10 -60 -10 -285 -12 -336 -3 -25 5 -73 11 -108
13 -34 3 -74 10 -88 15 -14 6 -36 10 -50 10 -13 0 -24 4 -24 9 0 5 -16 8 -36
7 -20 -1 -38 2 -40 5 -2 4 -37 17 -77 29 -66 21 -108 37 -194 76 -17 8 -36 14
-42 14 -6 0 -11 5 -11 10 0 6 -9 10 -19 10 -11 0 -21 5 -23 11 -2 5 -10 11
-19 12 -8 2 -29 13 -46 25 -17 12 -36 22 -41 22 -12 0 -23 26 -15 34 4 3 15 6
25 6 10 0 18 4 18 9 0 5 15 16 33 25 39 19 165 138 198 186 12 19 26 37 29 40
14 13 100 184 105 210 0 3 7 27 14 53 8 26 11 50 9 53 -3 3 -65 -54 -137 -125
-73 -72 -138 -131 -144 -131 -7 0 -32 -16 -56 -35 -24 -19 -50 -35 -57 -35 -8
0 -14 -4 -14 -8 0 -5 -12 -15 -27 -22 -16 -8 -36 -21 -47 -30 -10 -8 -21 -15
-25 -14 -3 0 -24 -7 -46 -17 -22 -9 -58 -25 -80 -35 -46 -19 -36 -17 -140 -39
-79 -17 -183 -24 -201 -13 -5 3 -43 11 -84 18 -41 6 -93 17 -115 23 -22 6 -48
9 -57 8 -30 -4 -20 25 20 55 20 15 57 47 82 71 25 23 53 48 62 55 9 7 18 19
20 27 2 7 13 25 26 40 30 34 72 99 72 111 0 6 5 10 12 10 6 0 8 3 5 6 -4 4 0
19 7 33 28 54 56 136 62 181 3 19 9 48 15 64 12 38 12 392 0 415 -6 10 -11 39
-12 65 -3 45 -12 65 -22 49 -3 -5 -8 -33 -12 -63 -4 -30 -11 -77 -17 -105 -5
-27 -12 -67 -15 -88 -3 -20 -9 -40 -14 -43 -5 -3 -9 -16 -9 -29 0 -13 -5 -27
-10 -30 -6 -4 -8 -10 -6 -14 3 -4 -4 -24 -14 -44 -11 -21 -18 -37 -15 -37 4 0
-22 -52 -79 -155 -6 -11 -17 -24 -23 -28 -7 -4 -13 -13 -13 -20 0 -7 -13 -25
-30 -40 -16 -16 -30 -33 -30 -39 0 -5 -23 -30 -52 -56 -28 -26 -66 -62 -84
-79 -19 -18 -36 -33 -39 -33 -4 0 -27 -15 -53 -32 -26 -18 -51 -32 -55 -30 -4
1 -10 -5 -13 -13 -4 -8 -15 -15 -25 -15 -10 0 -19 -4 -19 -10 0 -5 -8 -10 -18
-10 -10 0 -22 -3 -26 -7 -4 -5 -11 -8 -14 -8 -7 0 -52 -17 -97 -35 -41 -17
-159 -37 -272 -46 -69 -5 -73 -5 -73 15 0 11 9 40 19 63 39 88 46 130 46 283
0 83 -4 159 -8 169 -11 29 -28 6 -33 -45 -2 -24 -10 -60 -17 -79 -8 -19 -20
-50 -26 -67 -7 -18 -17 -33 -22 -33 -5 0 -8 -3 -7 -7 14 -53 -230 -270 -320
-285 -10 -2 -19 -6 -22 -10 -3 -4 -17 -9 -30 -11 -14 -2 -32 -7 -40 -10 -8 -4
-51 -9 -95 -11 -44 -3 -92 -7 -106 -10 -14 -3 -68 -8 -120 -11 -52 -3 -107 -8
-124 -11 -44 -7 -620 -8 -633 0 -6 3 -30 9 -54 12 -24 3 -70 13 -103 21 -33 8
-70 17 -82 20 -13 3 -23 8 -23 12 0 4 -10 7 -22 8 -22 2 -117 41 -128 53 -3 3
-24 14 -47 24 -23 10 -50 27 -59 37 -9 10 -20 16 -24 14 -4 -3 -25 11 -46 30
-21 19 -42 35 -46 35 -19 0 -284 250 -288 272 -1 4 -22 28 -48 55 -61 62 -92
101 -92 113 0 6 -4 10 -8 10 -5 0 -15 11 -22 25 -7 14 -19 25 -27 25 -15 0
-18 -36 -4 -44 5 -3 7 -15 4 -25 -3 -10 0 -22 6 -25 6 -4 11 -18 11 -31 0 -13
5 -27 10 -30 6 -3 10 -13 10 -20 0 -24 107 -238 134 -270 14 -17 26 -33 26
-37 0 -23 252 -277 283 -286 4 -1 23 -17 42 -37 20 -19 42 -35 49 -35 18 0 25
-20 15 -45 -4 -11 -8 -17 -8 -14 -1 4 -20 -12 -43 -35 -52 -52 -118 -102 -118
-90 0 5 -6 2 -13 -6 -16 -21 -132 -76 -187 -91 -25 -6 -55 -16 -67 -22 -31
-14 -373 -13 -401 2 -11 6 -34 11 -51 11 -16 0 -33 5 -36 10 -3 6 -19 10 -36
10 -16 0 -29 4 -29 8 0 5 -6 9 -12 10 -67 5 -237 93 -399 204 -100 69 -282
257 -337 349 -13 22 -27 39 -33 39 -5 0 -9 6 -9 13 0 6 -13 38 -29 69 -26 51
-49 108 -55 141 -2 7 -6 19 -9 27 -25 62 -39 163 -39 290 -1 79 8 226 15 236
2 5 8 29 12 54 4 25 12 50 17 57 5 7 7 16 4 21 -3 5 2 21 10 36 7 16 14 37 14
47 0 11 5 19 10 19 6 0 10 11 10 25 0 14 4 25 8 25 5 0 18 21 30 48 29 63 54
105 70 115 7 5 10 12 7 16 -2 5 7 17 20 27 14 10 25 23 25 29 1 19 191 202
224 214 6 2 25 14 41 26 17 13 50 33 75 45 25 13 47 25 50 29 10 12 50 31 65
31 8 0 15 4 15 8 0 5 23 15 51 22 27 8 52 18 55 22 3 4 16 8 30 8 13 0 24 5
24 10 0 6 9 10 20 10 11 0 28 4 38 9 29 14 87 31 110 31 11 0 23 4 26 9 3 5
20 11 38 14 18 3 60 12 93 21 99 25 237 56 280 62 21 3 43 8 48 11 5 3 26 8
46 10 20 3 38 8 41 12 3 3 23 8 45 9 22 2 45 7 50 12 6 4 25 10 43 14 17 3 47
9 65 12 17 4 34 10 37 15 3 4 17 10 30 12 14 2 32 7 40 10 8 4 24 8 35 10 11
1 25 6 31 9 6 4 22 9 36 12 15 2 47 14 72 25 25 11 46 18 46 16 0 -4 47 11
108 36 12 5 32 13 45 18 61 24 125 55 157 74 19 12 37 22 40 23 16 2 60 29 60
36 0 4 7 8 15 8 8 0 15 5 15 11 0 5 4 8 9 5 5 -4 20 7 34 23 14 17 27 27 30
24 4 -3 12 1 20 8 7 8 31 29 51 47 21 18 36 35 34 38 -5 4 -168 -75 -178 -86
-5 -6 -107 -51 -125 -55 -10 -2 -27 -8 -85 -30 -55 -21 -74 -28 -85 -31 -5 -1
-37 -10 -70 -19 -100 -28 -124 -33 -129 -27 -4 3 -6 1 -6 -4 0 -5 -10 -11 -22
-12 -13 -1 -30 -4 -38 -6 -27 -6 -75 -17 -110 -26 -49 -12 -151 -33 -175 -35
-11 -1 -31 -5 -45 -8 -14 -4 -42 -9 -64 -12 -21 -3 -41 -7 -45 -9 -4 -3 -25
-7 -46 -9 -22 -3 -51 -8 -65 -11 -34 -8 -73 -15 -150 -28 -36 -6 -74 -14 -85
-19 -19 -7 -40 -11 -155 -25 -25 -3 -49 -10 -54 -15 -6 -5 -25 -9 -43 -9 -17
0 -42 -4 -55 -9 -21 -8 -95 -27 -140 -36 -26 -5 -139 -47 -168 -62 -14 -7 -33
-13 -42 -13 -9 0 -20 -4 -23 -10 -6 -9 -74 -45 -86 -45 -3 0 -17 -8 -30 -17
-59 -43 -125 -85 -133 -85 -16 -1 -256 -229 -256 -244 0 -5 -13 -22 -30 -39
-16 -17 -30 -34 -30 -38 0 -5 -9 -18 -20 -29 -24 -27 -130 -232 -130 -254 0
-8 -3 -19 -7 -23 -9 -8 -32 -73 -39 -106 -2 -14 -7 -32 -11 -40 -20 -47 -42
-444 -27 -479 4 -9 9 -34 11 -56 5 -54 9 -77 15 -95 7 -18 28 -97 33 -119 2
-9 11 -33 19 -53 9 -21 16 -40 16 -43 -1 -3 8 -26 20 -51 11 -26 20 -49 20
-51 0 -2 7 -11 15 -20 8 -8 13 -19 10 -24 -4 -5 -1 -9 4 -9 6 0 11 -9 11 -20
0 -11 4 -20 8 -20 5 0 17 -18 27 -40 10 -22 22 -40 27 -40 4 0 8 -7 8 -15 0
-9 6 -18 14 -21 8 -3 20 -19 26 -35 7 -16 15 -29 19 -29 4 0 14 -12 23 -27 21
-36 53 -73 63 -73 13 0 65 -62 59 -71 -3 -5 0 -9 7 -9 7 0 28 -16 46 -36 18
-20 33 -34 33 -30 0 7 32 -17 70 -54 30 -28 145 -110 155 -110 3 0 29 -15 58
-33 49 -31 88 -51 167 -84 19 -8 44 -19 55 -25 12 -5 27 -10 35 -12 8 -2 24
-6 35 -10 80 -31 96 -36 103 -34 4 1 20 -4 36 -11 16 -6 31 -9 34 -6 3 2 10 1
16 -4 6 -5 36 -12 66 -16 30 -4 62 -10 70 -14 8 -4 39 -8 67 -9 29 -1 61 -5
70 -11 24 -12 480 -11 536 2 41 9 46 13 56 51 33 118 109 262 151 289 11 6 20
17 20 24 0 7 4 13 8 13 5 0 22 11 38 25 31 27 186 107 213 111 9 1 41 10 71
18 75 22 198 46 237 46 17 0 34 4 37 8 3 5 27 9 53 11 59 2 75 5 88 13 6 3 37
7 70 9 33 1 65 5 70 10 6 4 46 9 91 11 44 3 86 8 92 12 7 4 49 7 94 7 44 0 90
5 101 10 25 14 543 15 577 1 14 -5 58 -10 99 -11 41 -1 78 -4 82 -7 5 -3 32
-7 61 -10 29 -2 60 -7 68 -10 8 -3 38 -10 65 -15 90 -17 168 -36 290 -69 44
-12 91 -24 105 -27 14 -3 30 -9 35 -14 6 -4 22 -10 35 -12 23 -5 60 -17 100
-34 8 -3 20 -7 25 -8 17 -4 188 -65 213 -75 33 -15 74 -32 97 -40 11 -4 31
-12 45 -18 14 -5 40 -16 59 -23 56 -21 132 -77 189 -137 50 -54 121 -175 127
-217 2 -11 11 -45 21 -75 15 -48 18 -93 17 -357 -1 -348 1 -340 -81 -329 -26
4 -103 18 -172 31 -69 14 -142 27 -163 30 -21 2 -47 7 -59 10 -19 7 -95 20
-168 30 -19 3 -53 9 -75 15 -22 5 -54 11 -72 14 -17 2 -35 6 -40 9 -4 2 -32 8
-62 11 -29 4 -56 8 -60 10 -3 2 -28 7 -55 10 -27 4 -52 9 -56 11 -3 2 -26 6
-50 10 -25 3 -110 18 -190 31 -80 14 -161 27 -180 30 -19 3 -57 9 -85 14 -73
13 -196 32 -225 35 -14 1 -59 7 -100 13 -148 22 -176 25 -266 27 -50 2 -115 8
-145 14 -30 6 -85 13 -124 16 -38 2 -95 7 -125 9 -30 3 -95 8 -145 11 -49 3
-112 7 -140 10 -27 2 -111 9 -185 15 -74 6 -142 13 -150 15 -104 26 -799 27
-1010 1 -19 -3 -62 -7 -95 -11 -33 -3 -67 -8 -75 -10 -8 -2 -33 -6 -55 -9 -52
-6 -191 -34 -231 -47 -17 -5 -40 -11 -50 -13 -87 -17 -307 -98 -439 -161 -203
-97 -347 -209 -473 -370 -12 -14 -67 -109 -68 -115 0 -3 -10 -25 -21 -50 -19
-40 -30 -88 -47 -195 -49 -306 77 -557 385 -767 38 -27 71 -48 74 -48 6 0 79
-50 85 -59 9 -13 123 -67 185 -89 33 -11 94 -35 135 -53 106 -45 261 -99 287
-99 12 0 32 -4 45 -9 43 -18 245 -68 303 -76 17 -2 64 -9 105 -16 41 -6 87
-13 102 -14 14 -2 57 -8 95 -14 37 -6 88 -13 113 -15 25 -3 77 -9 115 -15 39
-5 77 -10 85 -10 8 0 31 -2 50 -5 224 -30 429 -41 790 -41 279 0 496 8 540 20
25 7 63 13 133 20 44 5 67 12 67 20 0 15 -38 27 -46 14 -3 -5 -8 -8 -12 -5 -4
2 -68 -2 -142 -9 -125 -12 -865 -13 -960 -1 -19 2 -69 7 -110 10 -111 10 -161
15 -200 20 -19 3 -62 7 -95 11 -33 3 -69 8 -80 10 -11 2 -42 7 -70 9 -27 3
-71 10 -97 15 -27 6 -51 10 -55 9 -9 -2 -51 6 -183 33 -52 10 -111 21 -130 24
-80 11 -292 67 -356 94 -134 56 -259 112 -295 131 -20 11 -39 17 -43 13 -3 -3
-6 -2 -6 4 0 6 -15 16 -32 24 -54 21 -259 149 -328 204 -165 131 -259 246
-287 351 -29 106 -29 184 1 274 14 41 23 77 20 81 -2 4 0 9 6 11 6 2 12 12 14
23 12 61 105 197 190 278 93 89 280 201 426 255 96 36 267 85 340 98 14 2 50
10 80 16 63 13 61 13 160 24 127 15 610 1 730 -21 14 -2 59 -7 100 -10 41 -3
86 -8 100 -10 14 -2 57 -6 95 -9 165 -13 211 -19 425 -47 124 -16 356 -52 515
-79 160 -27 308 -51 330 -54 163 -22 418 -60 510 -77 61 -10 162 -28 225 -40
63 -11 192 -40 285 -64 94 -24 247 -60 340 -80 94 -19 195 -41 225 -49 54 -14
54 -14 17 -15 -88 -2 -157 -68 -157 -149 0 -77 47 -133 123 -147 45 -9 46 -22
7 -60 -24 -23 -41 -30 -89 -33 -50 -4 -60 -8 -65 -25 -7 -28 -5 -30 58 -35 74
-6 144 19 205 74 62 56 86 119 78 205 -6 69 -30 115 -78 148 -30 20 -31 23 -9
18 409 -95 770 -162 770 -145 0 5 -14 29 -30 53 -17 24 -47 79 -69 122 l-38
78 1 593 c1 509 3 594 16 602 8 5 19 5 25 1 5 -5 33 -12 60 -15 28 -4 77 -12
110 -17 33 -5 98 -14 145 -19 46 -5 91 -12 98 -15 17 -6 496 -6 532 0 14 3 59
9 100 14 41 6 102 17 135 26 123 33 170 47 179 56 6 5 16 9 24 9 19 0 141 59
178 86 17 13 34 21 37 18 3 -3 13 1 24 10 10 8 38 31 63 50 25 20 50 41 57 46
7 6 16 10 22 10 5 0 11 4 13 9 2 5 28 36 58 69 82 87 168 203 200 267 8 17 21
35 29 41 8 6 11 16 7 22 -4 7 -3 12 3 12 6 0 13 11 17 25 3 14 11 25 17 25 6
0 7 3 4 7 -4 3 0 17 9 30 8 14 17 34 19 46 3 11 8 23 12 26 5 3 10 15 11 26 2
11 7 22 11 25 5 3 8 12 9 20 1 17 6 36 16 65 27 73 32 95 35 134 1 24 6 52 11
62 13 23 13 325 1 347 -5 9 -10 35 -12 57 -1 22 -7 46 -13 53 -5 7 -11 24 -12
38 -3 32 -98 227 -119 244 -8 7 -15 18 -15 25 0 8 -3 15 -7 17 -5 2 -27 29
-51 60 -50 67 -200 223 -208 215 -3 -2 -22 10 -42 29 -20 19 -41 34 -46 34 -5
0 -24 11 -43 26 -18 14 -37 23 -42 20 -5 -3 -12 1 -15 10 -4 9 -13 14 -21 10
-8 -3 -15 -1 -15 4 0 5 -11 12 -25 16 -14 3 -25 10 -25 15 0 5 -11 9 -24 9
-14 0 -28 5 -31 10 -3 6 -17 10 -30 10 -13 0 -27 5 -30 10 -3 6 -17 10 -30 10
-13 0 -27 5 -30 10 -3 6 -17 10 -31 10 -14 0 -34 4 -44 10 -10 5 -33 11 -51
14 -19 2 -56 10 -82 16 -26 7 -50 10 -53 7 -3 -2 -24 1 -47 8 -84 25 -458 7
-518 -26 -11 -5 -19 -8 -19 -5 0 10 -109 -27 -162 -55 -10 -5 -26 -9 -35 -9
-10 0 -29 -9 -43 -20 -14 -11 -35 -20 -47 -20 -20 0 -23 6 -25 38 0 20 -1 44
0 52 0 8 -3 17 -8 20 -5 3 -11 23 -13 45 -8 66 -106 303 -129 313 -4 2 -8 10
-8 17 0 8 -8 18 -17 24 -10 5 -15 12 -12 16 6 6 -2 17 -90 116 -23 25 -41 49
-41 53 0 3 -25 30 -57 59 -31 28 -69 64 -84 79 -15 14 -30 23 -33 20 -4 -3
-16 5 -27 17 -24 26 -148 118 -196 146 -18 11 -33 24 -33 29 0 5 -3 7 -6 3 -3
-3 -24 5 -45 19 -21 13 -43 24 -48 24 -5 0 -11 3 -13 8 -4 10 -87 52 -104 52
-8 0 -14 5 -14 10 0 6 -11 10 -24 10 -13 0 -26 5 -28 11 -2 5 -10 11 -18 13
-8 1 -25 8 -37 14 -13 7 -23 10 -23 7 0 -3 -11 2 -25 11 -14 9 -25 13 -25 10
0 -4 -13 0 -30 9 -16 8 -33 15 -37 15 -5 0 -23 5 -41 11 -18 6 -36 8 -39 5 -3
-3 -15 1 -27 9 -11 8 -33 15 -48 15 -15 0 -29 4 -32 8 -3 5 -20 9 -38 10 -18
1 -40 4 -48 5 -42 10 -90 18 -135 23 -63 8 -342 13 -348 7z"/>
<path d="M1654 3208 c-26 -51 -72 -142 -104 -203 -182 -350 -440 -876 -440
-899 0 -38 30 -46 183 -46 156 0 164 4 197 87 13 32 28 64 33 71 10 13 240 16
287 3 23 -6 25 -12 28 -74 4 -94 14 -100 191 -104 180 -5 186 -2 185 92 -1 59
-10 124 -39 285 -2 14 -9 52 -14 85 -10 59 -53 308 -72 415 -5 30 -12 71 -15
90 -14 84 -44 228 -53 251 -5 15 -17 29 -26 33 -9 3 -79 6 -156 6 l-139 0 -46
-92z m140 -555 l6 -93 -65 0 -65 0 52 105 c30 60 55 99 59 92 3 -6 9 -54 13
-104z"/>
<path d="M2935 2915 c-5 -2 -26 -6 -46 -9 -20 -4 -61 -22 -92 -40 -57 -34 -57
-34 -57 -11 0 59 -33 69 -140 40 -30 -8 -71 -15 -91 -15 -49 0 -97 -18 -103
-38 -2 -10 -8 -55 -11 -102 -6 -75 -31 -249 -56 -380 -13 -72 -39 -222 -46
-262 -8 -53 14 -61 170 -62 111 -1 130 1 141 16 11 15 40 170 80 425 7 45 18
79 31 93 24 28 79 52 99 44 17 -7 28 -46 21 -76 -6 -29 -12 -68 -20 -127 -4
-25 -17 -99 -31 -165 -27 -132 -30 -186 -12 -204 17 -17 282 -17 296 1 11 13
21 65 47 237 24 159 45 253 60 276 7 12 30 29 49 38 44 21 76 8 76 -29 0 -37
-27 -207 -50 -319 -12 -54 -22 -121 -23 -149 -3 -70 13 -77 170 -77 148 0 143
-5 167 155 14 93 33 207 53 315 2 14 11 57 19 95 18 89 18 178 0 213 -39 75
-134 119 -238 109 -64 -6 -170 -51 -202 -86 -17 -18 -18 -18 -65 29 -38 38
-59 50 -100 59 -52 11 -77 13 -96 6z"/>
<path d="M4060 2884 c-156 -42 -291 -194 -335 -380 -27 -114 -16 -278 25 -354
23 -43 85 -102 132 -126 87 -44 210 -31 296 32 21 16 22 16 22 -9 0 -44 19
-49 150 -46 153 5 154 6 174 149 8 58 18 132 21 165 4 33 15 105 25 160 17 88
30 141 72 288 8 27 7 41 -2 52 -13 16 -81 37 -179 56 l-64 12 -24 -28 -24 -27
-22 20 c-53 50 -161 64 -267 36z m161 -304 c63 -34 59 -152 -8 -222 -79 -82
-183 -44 -183 67 0 112 107 199 191 155z"/>
<path d="M4950 2859 c-25 -5 -76 -14 -115 -19 -82 -10 -98 -25 -90 -85 5 -36
-21 -265 -45 -390 -50 -267 -58 -336 -38 -352 17 -15 224 -27 263 -15 42 12
46 28 116 447 11 66 28 91 77 112 37 15 71 4 73 -25 3 -47 -21 -204 -56 -377
-22 -102 -20 -142 7 -156 35 -19 263 -18 282 1 14 13 80 364 117 622 17 118
-17 186 -113 228 -80 34 -164 26 -265 -25 l-78 -40 0 40 0 40 -45 2 c-25 1
-65 -3 -90 -8z"/>
<path d="M6330 2801 c-72 -11 -179 -56 -208 -89 -13 -15 -39 -58 -58 -98 -34
-68 -35 -73 -23 -115 6 -24 11 -61 10 -83 -1 -28 4 -44 19 -58 11 -10 20 -25
20 -32 0 -10 23 -16 83 -21 45 -4 95 -5 112 -3 26 3 32 -2 47 -31 10 -19 16
-36 15 -36 -1 -1 -32 0 -70 3 -60 4 -68 7 -73 27 -7 27 -30 35 -104 35 -81 -1
-105 -25 -112 -113 -3 -40 -2 -67 4 -67 5 0 7 -8 3 -19 -13 -43 12 -66 103
-91 73 -21 109 -25 218 -25 124 1 132 2 160 25 27 22 65 73 101 136 7 12 14
43 17 70 2 27 8 72 11 101 7 46 4 57 -23 105 -20 34 -43 60 -64 70 -25 13 -28
17 -13 17 11 1 35 -3 54 -9 29 -8 38 -6 66 16 34 25 51 66 38 87 -4 6 -6 28
-4 48 2 27 -4 43 -22 63 -13 14 -29 26 -36 26 -6 0 -11 4 -11 10 0 19 -76 48
-140 53 -36 3 -90 2 -120 -2z m104 -266 c4 -13 -7 -15 -69 -15 -85 0 -102 17
-22 23 28 2 59 4 68 5 9 1 19 -5 23 -13z"/>
</g>
</svg>
